<svg width="41" height="41" fill="none" xmlns="http://www.w3.org/2000/svg"><rect x=".803" y=".608" width="40" height="40" rx="20" fill="#fff"/><path d="M16.803 33.608a4.335 4.335 0 004.334-4.333V24.94h-4.334a4.335 4.335 0 00-4.333 4.334 4.335 4.335 0 004.333 4.333z" fill="#0ACF83"/><path d="M12.47 20.609a4.335 4.335 0 014.333-4.334h4.334v8.667h-4.334a4.335 4.335 0 01-4.333-4.333z" fill="#A259FF"/><path d="M12.47 11.942a4.335 4.335 0 014.333-4.334h4.334v8.667h-4.334a4.335 4.335 0 01-4.333-4.333z" fill="#F24E1E"/><path d="M21.136 7.608h4.334a4.335 4.335 0 014.333 4.334 4.335 4.335 0 01-4.333 4.333h-4.334V7.608z" fill="#FF7262"/><path d="M29.803 20.609a4.335 4.335 0 01-4.333 4.333 4.335 4.335 0 01-4.334-4.333 4.335 4.335 0 014.334-4.334 4.335 4.335 0 014.333 4.334z" fill="#1ABCFE"/></svg>