<svg width="41" height="41" fill="none" xmlns="http://www.w3.org/2000/svg"><rect x=".803" y=".608" width="40" height="40" rx="20" fill="#191717"/><path fill-rule="evenodd" clip-rule="evenodd" d="M20.798 7.608a13.738 13.738 0 00-8.867 3.247 13.594 13.594 0 00-4.64 8.186 13.549 13.549 0 001.799 9.224 13.677 13.677 0 007.379 5.868c.68.126.936-.295.936-.653 0-.359-.014-1.398-.018-2.534-3.808.823-4.613-1.607-4.613-1.607-.62-1.577-1.518-1.992-1.518-1.992-1.242-.843.093-.827.093-.827 1.376.097 2.098 1.404 2.098 1.404 1.22 2.08 3.203 1.479 3.983 1.127.122-.881.478-1.48.87-1.821-3.041-.343-6.237-1.51-6.237-6.726a5.254 5.254 0 011.41-3.653c-.141-.342-.61-1.726.133-3.606 0 0 1.15-.365 3.765 1.395 2.244-.61 4.61-.61 6.855 0 2.613-1.76 3.76-1.395 3.76-1.395.746 1.875.276 3.26.136 3.606a5.243 5.243 0 011.412 3.658c0 5.227-3.203 6.378-6.25 6.714.49.424.928 1.25.928 2.522 0 1.821-.016 3.286-.016 3.735 0 .362.247.786.94.653a13.677 13.677 0 007.38-5.87 13.548 13.548 0 001.798-9.225 13.594 13.594 0 00-4.642-8.185 13.737 13.737 0 00-8.87-3.245h-.004z" fill="#fff"/><path d="M12.293 27.151c-.029.068-.138.088-.226.041-.089-.047-.154-.135-.123-.205.032-.07.139-.088.227-.04.088.047.156.137.122.204zm.556.616a.228.228 0 01-.281-.064c-.089-.094-.107-.225-.039-.284.068-.058.19-.031.279.064.088.094.109.225.04.284zm.539.781c-.084.058-.226 0-.306-.117a.225.225 0 010-.325c.084-.056.227 0 .306.115.08.115.082.268 0 .327zm.732.758c-.074.083-.226.06-.35-.052-.125-.113-.155-.266-.08-.347.075-.081.226-.059.356.052.129.11.154.266.075.347zm1.027.441c-.034.106-.188.153-.342.108-.154-.045-.256-.171-.227-.28.03-.107.186-.157.343-.107.156.05.256.169.226.279zm1.12.077c0 .11-.127.205-.29.208-.163.002-.297-.088-.297-.199 0-.11.127-.205.29-.207.163-.002.297.086.297.198zm1.043-.174c.02.111-.093.226-.256.253-.164.027-.306-.038-.327-.146-.02-.109.098-.226.256-.255.159-.03.306.038.327.149z" fill="#fff"/></svg>