<svg width="41" height="41" fill="none" xmlns="http://www.w3.org/2000/svg"><g clip-path="url(#clip0_7814_2808)"><path d="M20.803 40.608c11.046 0 20-8.954 20-20 0-11.045-8.954-20-20-20s-20 8.955-20 20c0 11.046 8.954 20 20 20z" fill="#1D66C2"/><path d="M16.321 16.443h-3.859v12.445h3.86V16.443zm9.831-.249c-1.489-.125-2.862.744-3.61 1.992v-1.743H18.81v12.444h3.857v-6.22c0-1.62.372-3.238 2.365-3.238 1.992 0 1.99 1.86 1.99 3.36v6.098h3.86l-.126-6.72c0-3.36-.623-5.974-4.604-5.974zM14.33 14.702a2.24 2.24 0 100-4.48 2.24 2.24 0 000 4.48z" fill="#fff"/></g><defs><clipPath id="clip0_7814_2808"><path fill="#fff" transform="translate(.803 .608)" d="M0 0h40v40H0z"/></clipPath></defs></svg>