<svg width="41" height="41" fill="none" xmlns="http://www.w3.org/2000/svg"><g clip-path="url(#clip0_7814_2799)"><path d="M20.803 40.608c11.046 0 20-8.954 20-20 0-11.045-8.954-20-20-20s-20 8.955-20 20c0 11.046 8.954 20 20 20z" fill="#7360F2"/><path d="M28.407 13.042c-.512-.474-2.586-1.98-7.206-2 0 0-5.447-.33-8.102 2.108-1.489 1.477-1.998 3.641-2.047 6.326-.048 2.684-.126 7.708 4.72 9.071v2.08s-.031.841.523 1.014c.67.207 1.064-.433 1.704-1.116.352-.372.837-.93 1.202-1.36 3.315.28 5.862-.359 6.153-.454.67-.216 4.455-.701 5.071-5.728.63-5.187-.314-8.463-2.018-9.94zm.558 9.563c-.52 4.195-3.59 4.465-4.157 4.642a17.28 17.28 0 01-5.294.45s-2.093 2.53-2.748 3.189a.351.351 0 01-.303.123c-.112-.028-.144-.16-.142-.356 0-.279.017-3.456.017-3.456-4.093-1.139-3.859-5.416-3.812-7.656.046-2.24.467-4.076 1.717-5.31 2.245-2.035 6.873-1.73 6.873-1.73 3.907.017 5.78 1.192 6.213 1.587 1.442 1.235 2.177 4.188 1.64 8.515l-.004.002z" fill="#fff"/><path d="M23.102 19.618a.26.26 0 01-.26-.248c-.045-.887-.461-1.323-1.313-1.367a.26.26 0 01.026-.521c1.116.06 1.75.703 1.808 1.86a.262.262 0 01-.247.274l-.014.002z" fill="#fff"/><path d="M24.442 20.068a.262.262 0 01-.255-.268 3.026 3.026 0 00-.78-2.21c-.543-.594-1.287-.916-2.275-.988a.262.262 0 01.037-.521c1.117.08 1.995.47 2.624 1.157a3.558 3.558 0 01.917 2.573.264.264 0 01-.167.239.261.261 0 01-.1.018z" fill="#fff"/><path d="M25.815 20.603a.26.26 0 01-.26-.258c-.013-1.576-.486-2.83-1.407-3.721a4.838 4.838 0 00-3.466-1.37.263.263 0 010-.522 5.341 5.341 0 013.83 1.505c1.026.999 1.55 2.378 1.564 4.093a.258.258 0 01-.26.262l-.001.011zm-4.221 2.253a.719.719 0 00.558-.214l.387-.483a.843.843 0 011.073-.15c.33.187.65.391.958.61.29.217.888.713.89.713a.744.744 0 01.158.966c-.214.37-.485.703-.804.988-.228.207-.51.345-.815.394a.516.516 0 01-.119 0 1.074 1.074 0 01-.346-.054v-.013c-.411-.115-1.098-.405-2.232-1.036a13.158 13.158 0 01-1.894-1.222 9.51 9.51 0 01-.847-.745l-.03-.027-.028-.03-.027-.028-.03-.028a10.12 10.12 0 01-.745-.846c-.47-.59-.89-1.219-1.253-1.88-.631-1.142-.93-1.826-1.037-2.232h-.013a1.09 1.09 0 01-.052-.346.505.505 0 010-.12c.049-.311.188-.602.4-.836.285-.319.618-.59.988-.804a.744.744 0 01.964.156s.498.6.712.89c.214.29.44.619.625.948a.847.847 0 01-.148 1.074l-.486.385a.719.719 0 00-.212.558s.72 2.726 3.405 3.412z" fill="#fff"/></g><defs><clipPath id="clip0_7814_2799"><path fill="#fff" transform="translate(.803 .608)" d="M0 0h40v40H0z"/></clipPath></defs></svg>