<svg width="41" height="41" fill="none" xmlns="http://www.w3.org/2000/svg"><g clip-path="url(#clip0_7814_2789)"><path d="M20.803 40.608c11.046 0 20-8.954 20-20 0-11.045-8.954-20-20-20s-20 8.955-20 20c0 11.046 8.954 20 20 20z" fill="#25D366"/><path d="M11.019 30.562l1.405-5.128a9.894 9.894 0 118.574 4.956 9.895 9.895 0 01-4.727-1.205l-5.252 1.377zm5.488-3.163l.302.186a8.226 8.226 0 108.17-14.278 8.226 8.226 0 00-10.952 11.57l.186.312-.831 3.034 3.125-.824z" fill="#fff"/><path fill-rule="evenodd" clip-rule="evenodd" d="M25.983 22.848c-.062-.104-.227-.166-.475-.288-.247-.123-1.462-.722-1.69-.806-.226-.084-.39-.123-.557.124-.168.248-.638.804-.782.97-.143.165-.29.186-.535.061a6.755 6.755 0 01-1.978-1.226 7.443 7.443 0 01-1.375-1.713c-.145-.248-.017-.372.108-.505.124-.132.247-.29.372-.433.102-.125.186-.264.247-.413a.46.46 0 00-.02-.433c-.061-.123-.558-1.34-.763-1.835-.204-.495-.404-.417-.558-.426-.154-.01-.309 0-.473 0a.91.91 0 00-.67.31 2.772 2.772 0 00-.864 2.047c0 1.217.885 2.393 1.01 2.558.124.166 1.743 2.663 4.223 3.733.46.198.931.372 1.41.52a3.399 3.399 0 001.558.099c.474-.07 1.462-.6 1.674-1.176.212-.576.199-1.066.138-1.168z" fill="#fff"/></g><defs><clipPath id="clip0_7814_2789"><path fill="#fff" transform="translate(.803 .608)" d="M0 0h40v40H0z"/></clipPath></defs></svg>