<svg width="41" height="41" viewBox="0 0 41 41" fill="none" xmlns="http://www.w3.org/2000/svg">
<g clip-path="url(#clip0_7814_2827)">
<path d="M20.803 40.6084C31.8487 40.6084 40.803 31.6541 40.803 20.6084C40.803 9.5627 31.8487 0.608398 20.803 0.608398C9.75728 0.608398 0.802979 9.5627 0.802979 20.6084C0.802979 31.6541 9.75728 40.6084 20.803 40.6084Z" fill="#0057FF"/>
<path d="M16.6913 13.4452C17.2784 13.4361 17.8644 13.4986 18.4364 13.6312C18.9185 13.7363 19.3762 13.932 19.7853 14.208C20.1632 14.4822 20.4623 14.8512 20.6522 15.2778C20.8703 15.8019 20.9755 16.3661 20.9611 16.9336C20.9857 17.5573 20.8266 18.1744 20.5034 18.7084C20.1628 19.2124 19.6922 19.6149 19.1415 19.8731C19.8888 20.0744 20.5395 20.5363 20.976 21.1754C21.3963 21.8515 21.6079 22.6365 21.5843 23.4322C21.597 24.0668 21.4654 24.696 21.1992 25.2722C20.9538 25.7747 20.5937 26.2125 20.148 26.5503C19.6894 26.8852 19.1728 27.1324 18.6243 27.2796C18.056 27.437 17.4689 27.5165 16.8792 27.5159H10.4048V13.4452H16.6913ZM16.3192 19.1308C16.7803 19.1504 17.2343 19.0126 17.6066 18.7401C17.7853 18.5816 17.9244 18.3834 18.0126 18.1614C18.1008 17.9394 18.1357 17.6999 18.1146 17.4619C18.1265 17.1837 18.071 16.9067 17.9527 16.6545C17.8527 16.4541 17.697 16.2868 17.5043 16.1726C17.3097 16.0464 17.0912 15.9616 16.8625 15.9233C16.6135 15.8766 16.3604 15.8548 16.1071 15.8582H13.3406V19.1438H16.3173L16.3192 19.1308ZM16.4811 25.1178C16.7596 25.1217 17.0376 25.0917 17.309 25.0285C17.5574 24.9743 17.7931 24.8726 18.0029 24.7289C18.2085 24.5865 18.3749 24.3945 18.4867 24.1708C18.6151 23.8847 18.6743 23.5724 18.6597 23.2592C18.6877 22.9732 18.6498 22.6847 18.5488 22.4157C18.4479 22.1467 18.2866 21.9044 18.0773 21.7075C17.635 21.3802 17.0919 21.2183 16.5425 21.2499H13.3406V25.1215L16.4811 25.1178Z" fill="white"/>
<path d="M25.761 25.0638C25.9913 25.2774 26.2626 25.4419 26.5584 25.5475C26.8543 25.653 27.1685 25.6973 27.4819 25.6777C27.9784 25.6889 28.465 25.5381 28.868 25.248C29.1951 25.0346 29.4429 24.7195 29.5731 24.3512H31.9117C31.6624 25.3995 31.0534 26.3271 30.1908 26.9726C29.3655 27.5208 28.3903 27.799 27.4001 27.7689C26.6917 27.7781 25.9888 27.6446 25.3331 27.3764C24.7398 27.129 24.2077 26.755 23.774 26.2805C23.3417 25.7842 23.01 25.2085 22.7973 24.5857C22.5576 23.8892 22.4399 23.1566 22.4494 22.4201C22.4454 21.6958 22.5669 20.9764 22.8085 20.2936C23.1325 19.334 23.752 18.5016 24.5782 17.9157C25.4043 17.3299 26.3948 17.0206 27.4075 17.0322C28.1555 17.0169 28.895 17.1923 29.5564 17.5419C30.1551 17.8697 30.6716 18.3289 31.0671 18.8852C31.4711 19.4692 31.7608 20.1245 31.921 20.8163C32.0972 21.5592 32.1599 22.3245 32.1071 23.0861H25.1378C25.0821 23.8011 25.3054 24.5099 25.761 25.0638ZM28.8178 19.7168C28.6233 19.5237 28.3901 19.3741 28.1335 19.2778C27.877 19.1816 27.6028 19.141 27.3294 19.1587C26.9644 19.145 26.6022 19.2264 26.2782 19.395C26.0214 19.5357 25.7945 19.7253 25.6103 19.9531C25.447 20.1674 25.3253 20.4103 25.2513 20.6694C25.1851 20.886 25.1439 21.1095 25.1285 21.3354H29.4429C29.4055 20.747 29.1916 20.1835 28.8289 19.7187L28.8178 19.7168Z" fill="white"/>
<path d="M29.9714 14.3809H24.563V15.7632H29.9714V14.3809Z" fill="white"/>
</g>
<defs>
<clipPath id="clip0_7814_2827">
<rect width="40" height="40" fill="white" transform="translate(0.802979 0.608398)"/>
</clipPath>
</defs>
</svg>
