<svg width="41" height="41" viewBox="0 0 41 41" fill="none" xmlns="http://www.w3.org/2000/svg">
<g clip-path="url(#clip0_7814_2823)">
<path d="M20.803 40.6084C31.8487 40.6084 40.803 31.6541 40.803 20.6084C40.803 9.5627 31.8487 0.608398 20.803 0.608398C9.75728 0.608398 0.802979 9.5627 0.802979 20.6084C0.802979 31.6541 9.75728 40.6084 20.803 40.6084Z" fill="#1877F2"/>
<path d="M22.3267 22.3105H25.6756L26.3137 18.1338H22.3305V15.425C22.3305 14.2826 22.8886 13.1682 24.6709 13.1682H26.4774V9.61287C25.4142 9.43966 24.3397 9.34514 23.2625 9.33008C19.9825 9.33008 17.8393 11.3301 17.8393 14.9524V18.1338H14.1984V22.3105H17.843V32.4054H22.3305L22.3267 22.3105Z" fill="white"/>
</g>
<defs>
<clipPath id="clip0_7814_2823">
<rect width="40" height="40" fill="white" transform="translate(0.802979 0.608398)"/>
</clipPath>
</defs>
</svg>
