<svg width="41" height="41" viewBox="0 0 41 41" fill="none" xmlns="http://www.w3.org/2000/svg">
<rect x="0.802979" y="0.608398" width="40" height="40" rx="20" fill="white"/>
<path d="M16.8031 33.6081C19.1951 33.6081 21.1365 31.6668 21.1365 29.2748V24.9414H16.8031C14.4111 24.9414 12.4697 26.8828 12.4697 29.2748C12.4697 31.6668 14.4111 33.6081 16.8031 33.6081Z" fill="#0ACF83"/>
<path d="M12.4697 20.6088C12.4697 18.2168 14.4111 16.2754 16.8031 16.2754H21.1365V24.942H16.8031C14.4111 24.9421 12.4697 23.0008 12.4697 20.6088Z" fill="#A259FF"/>
<path d="M12.4697 11.9418C12.4697 9.54977 14.4111 7.6084 16.8031 7.6084H21.1365V16.275H16.8031C14.4111 16.275 12.4697 14.3338 12.4697 11.9418Z" fill="#F24E1E"/>
<path d="M21.1362 7.6084H25.4696C27.8616 7.6084 29.803 9.54977 29.803 11.9418C29.803 14.3338 27.8616 16.275 25.4696 16.275H21.1362V7.6084Z" fill="#FF7262"/>
<path d="M29.803 20.6088C29.803 23.0008 27.8616 24.9421 25.4696 24.9421C23.0776 24.9421 21.1362 23.0008 21.1362 20.6088C21.1362 18.2168 23.0776 16.2754 25.4696 16.2754C27.8616 16.2754 29.803 18.2168 29.803 20.6088Z" fill="#1ABCFE"/>
</svg>
