<svg width="41" height="41" viewBox="0 0 41 41" fill="none" xmlns="http://www.w3.org/2000/svg">
<rect x="0.802979" y="0.608398" width="40" height="40" rx="20" fill="#191717"/>
<path fill-rule="evenodd" clip-rule="evenodd" d="M20.7984 7.6084C17.5487 7.61008 14.4057 8.76103 11.9312 10.8554C9.45672 12.9498 7.81216 15.8511 7.29159 19.0405C6.77102 22.2299 7.40837 25.4995 9.08971 28.2645C10.771 31.0295 13.3867 33.1097 16.469 34.1332C17.149 34.2594 17.4051 33.8379 17.4051 33.4796C17.4051 33.1212 17.3915 32.0822 17.387 30.9463C13.579 31.769 12.7743 29.3394 12.7743 29.3394C12.1532 27.7617 11.2556 27.347 11.2556 27.347C10.0135 26.5041 11.3486 26.5199 11.3486 26.5199C12.7245 26.6168 13.4475 27.924 13.4475 27.924C14.667 30.0042 16.6503 29.4025 17.4301 29.0509C17.5525 28.1697 17.9083 27.5702 18.3005 27.2298C15.2586 26.8873 12.0626 25.7198 12.0626 20.5045C12.0437 19.152 12.5485 17.844 13.4725 16.8512C13.3319 16.5086 12.8627 15.1248 13.6062 13.2451C13.6062 13.2451 14.7554 12.88 17.3711 14.6402C19.6148 14.0301 21.9819 14.0301 24.2256 14.6402C26.839 12.88 27.986 13.2451 27.986 13.2451C28.7317 15.1203 28.2625 16.5041 28.122 16.8512C29.0489 17.8442 29.5547 19.1544 29.5341 20.5091C29.5341 25.7356 26.3313 26.8873 23.2849 27.2231C23.7745 27.6468 24.212 28.4739 24.212 29.7451C24.212 31.5661 24.1961 33.0311 24.1961 33.4796C24.1961 33.8424 24.4432 34.2661 25.1368 34.1332C28.2194 33.1096 30.8353 31.029 32.5166 28.2635C34.1979 25.498 34.835 22.228 34.3138 19.0383C33.7926 15.8486 32.1473 12.9473 29.672 10.8533C27.1967 8.75921 24.0529 7.60902 20.8029 7.6084H20.7984Z" fill="white"/>
<path d="M12.2934 27.1514C12.264 27.219 12.1552 27.2393 12.0668 27.192C11.9784 27.1446 11.9127 27.0567 11.9444 26.9869C11.9761 26.917 12.0827 26.899 12.1711 26.9463C12.2595 26.9936 12.3274 27.0838 12.2934 27.1514Z" fill="white"/>
<path d="M12.8487 27.7666C12.8018 27.7901 12.748 27.7967 12.6968 27.7852C12.6455 27.7736 12.5999 27.7448 12.5676 27.7035C12.4792 27.6088 12.4611 27.4781 12.5291 27.4195C12.5971 27.3609 12.7195 27.388 12.8079 27.4826C12.8963 27.5773 12.9167 27.708 12.8487 27.7666Z" fill="white"/>
<path d="M13.3883 28.5478C13.3044 28.6064 13.1616 28.5478 13.0823 28.4306C13.0604 28.4096 13.0429 28.3844 13.031 28.3565C13.0191 28.3286 13.0129 28.2986 13.0129 28.2683C13.0129 28.238 13.0191 28.208 13.031 28.1802C13.0429 28.1523 13.0604 28.1271 13.0823 28.106C13.1662 28.0497 13.309 28.106 13.3883 28.221C13.4676 28.3359 13.4699 28.4892 13.3883 28.5478Z" fill="white"/>
<path d="M14.1205 29.3059C14.0457 29.3893 13.8939 29.3668 13.7692 29.2541C13.6445 29.1414 13.615 28.9881 13.6898 28.907C13.7646 28.8259 13.9165 28.8484 14.0457 28.9589C14.1749 29.0693 14.1998 29.2248 14.1205 29.3059Z" fill="white"/>
<path d="M15.1473 29.747C15.1133 29.8529 14.9591 29.9003 14.805 29.8552C14.6508 29.8101 14.5488 29.6839 14.5783 29.5757C14.6078 29.4675 14.7642 29.4179 14.9206 29.4675C15.077 29.5171 15.1767 29.6366 15.1473 29.747Z" fill="white"/>
<path d="M16.267 29.8244C16.267 29.9348 16.1401 30.0294 15.9769 30.0317C15.8137 30.034 15.6799 29.9438 15.6799 29.8334C15.6799 29.7229 15.8069 29.6283 15.9701 29.626C16.1333 29.6238 16.267 29.7117 16.267 29.8244Z" fill="white"/>
<path d="M17.3097 29.6507C17.3301 29.7611 17.2168 29.8761 17.0536 29.9031C16.8904 29.9302 16.7476 29.8648 16.7272 29.7566C16.7068 29.6485 16.8246 29.5313 16.9833 29.502C17.142 29.4727 17.2893 29.5403 17.3097 29.6507Z" fill="white"/>
</svg>
