<svg width="41" height="41" viewBox="0 0 41 41" fill="none" xmlns="http://www.w3.org/2000/svg">
<g clip-path="url(#clip0_7814_2819)">
<path d="M20.803 40.6084C31.8487 40.6084 40.803 31.6541 40.803 20.6084C40.803 9.5627 31.8487 0.608398 20.803 0.608398C9.75728 0.608398 0.802979 9.5627 0.802979 20.6084C0.802979 31.6541 9.75728 40.6084 20.803 40.6084Z" fill="url(#paint0_radial_7814_2819)"/>
<path fill-rule="evenodd" clip-rule="evenodd" d="M20.803 10.4688C23.5565 10.4688 23.9025 10.4799 24.9835 10.5301C25.8247 10.5462 26.657 10.7054 27.4448 11.0008C28.1181 11.2619 28.7296 11.6604 29.2402 12.171C29.7509 12.6816 30.1494 13.2931 30.4104 13.9664C30.7052 14.7525 30.8644 15.5829 30.8811 16.4222C30.9314 17.5032 30.9425 17.8492 30.9425 20.6027C30.9425 23.3562 30.9314 23.7022 30.8811 24.7832C30.865 25.6244 30.7059 26.4568 30.4104 27.2446C30.1494 27.9179 29.7509 28.5293 29.2402 29.04C28.7296 29.5506 28.1181 29.9491 27.4448 30.2101C26.6591 30.5069 25.8287 30.6679 24.989 30.6864C23.9081 30.7367 23.5621 30.7478 20.8086 30.7478C18.0551 30.7478 17.709 30.7367 16.6281 30.6864C15.7869 30.6703 14.9545 30.5112 14.1667 30.2157C13.4934 29.9547 12.8819 29.5562 12.3713 29.0455C11.8607 28.5349 11.4622 27.9234 11.2011 27.2501C10.9044 26.4644 10.7434 25.634 10.7248 24.7943C10.6746 23.7134 10.6635 23.3674 10.6635 20.6139C10.6635 17.8604 10.6746 17.5143 10.7248 16.4334C10.7409 15.5922 10.9001 14.7598 11.1955 13.972C11.4559 13.2977 11.8542 12.6851 12.3648 12.1735C12.8755 11.6619 13.4873 11.2625 14.1611 11.0008C14.9472 10.706 15.7776 10.5469 16.6169 10.5301C17.7035 10.4799 18.0495 10.4688 20.803 10.4688ZM24.896 12.3553C23.8281 12.3069 23.5062 12.2957 20.803 12.2957C18.0997 12.2957 17.7741 12.3069 16.71 12.3553C16.066 12.3619 15.4279 12.4789 14.8234 12.7013C14.3854 12.8702 13.9876 13.129 13.6556 13.4609C13.3237 13.7929 13.0649 14.1907 12.896 14.6288C12.6734 15.2319 12.5557 15.8687 12.5481 16.5115C12.4997 17.5794 12.4886 17.9013 12.4886 20.6046C12.4886 23.3078 12.4997 23.6334 12.5481 24.6976C12.5549 25.3429 12.6726 25.9823 12.896 26.5878C13.0649 27.0259 13.3237 27.4237 13.6556 27.7557C13.9876 28.0876 14.3854 28.3464 14.8234 28.5153C15.4266 28.7379 16.0634 28.8556 16.7062 28.8632C17.7742 28.9115 18.096 28.9227 20.7993 28.9227C23.5025 28.9227 23.8281 28.9115 24.8923 28.8632C25.5377 28.8564 26.177 28.7387 26.7825 28.5153C27.2206 28.3464 27.6184 28.0876 27.9504 27.7557C28.2823 27.4237 28.5411 27.0259 28.71 26.5878C28.9326 25.9847 29.0503 25.3479 29.0579 24.705C29.1062 23.6371 29.1174 23.3153 29.1174 20.612C29.1174 17.9087 29.1062 17.5832 29.0579 16.519C29.0511 15.8736 28.9334 15.2342 28.71 14.6288C28.5411 14.1907 28.2823 13.7929 27.9504 13.4609C27.6184 13.129 27.2206 12.8702 26.7825 12.7013C26.1793 12.4793 25.5425 12.3623 24.8997 12.3553H24.896ZM20.803 23.9887C21.4716 23.9887 22.1252 23.7905 22.6811 23.419C23.237 23.0476 23.6703 22.5196 23.9261 21.9019C24.182 21.2842 24.2489 20.6045 24.1185 19.9488C23.9881 19.293 23.6661 18.6907 23.1933 18.2179C22.7206 17.7452 22.1182 17.4232 21.4625 17.2928C20.8067 17.1623 20.127 17.2293 19.5093 17.4851C18.8916 17.741 18.3637 18.1743 17.9922 18.7302C17.6208 19.2861 17.4225 19.9397 17.4225 20.6083C17.423 21.5047 17.7793 22.3642 18.4132 22.9981C19.047 23.6319 19.9066 23.9883 20.803 23.9887ZM20.803 15.4008C21.8333 15.4008 22.8405 15.7064 23.6971 16.2788C24.5538 16.8512 25.2215 17.6648 25.6158 18.6166C26.01 19.5685 26.1132 20.6159 25.9122 21.6264C25.7112 22.6369 25.2151 23.5651 24.4865 24.2937C23.758 25.0222 22.8298 25.5183 21.8193 25.7194C20.8088 25.9204 19.7613 25.8172 18.8095 25.4229C17.8576 25.0286 17.044 24.3609 16.4716 23.5043C15.8992 22.6476 15.5937 21.6404 15.5937 20.6101C15.5937 19.2286 16.1425 17.9035 17.1195 16.9266C18.0964 15.9497 19.4214 15.4008 20.803 15.4008ZM27.4318 15.1962C27.4318 15.4368 27.3605 15.6721 27.2268 15.8722C27.0931 16.0723 26.903 16.2282 26.6807 16.3203C26.4584 16.4124 26.2137 16.4365 25.9777 16.3896C25.7417 16.3426 25.5249 16.2267 25.3547 16.0566C25.1845 15.8864 25.0687 15.6696 25.0217 15.4336C24.9748 15.1975 24.9989 14.9529 25.091 14.7306C25.183 14.5082 25.339 14.3182 25.5391 14.1845C25.7392 14.0508 25.9744 13.9794 26.2151 13.9794C26.5378 13.9794 26.8473 14.1076 27.0754 14.3358C27.3036 14.564 27.4318 14.8735 27.4318 15.1962Z" fill="white"/>
</g>
<defs>
<radialGradient id="paint0_radial_7814_2819" cx="0" cy="0" r="1" gradientUnits="userSpaceOnUse" gradientTransform="translate(10.9976 39.6883) rotate(-38.74) scale(56.787 36.3437)">
<stop stop-color="#F9D27A"/>
<stop offset="0.05" stop-color="#F8C871"/>
<stop offset="0.14" stop-color="#F5AD58"/>
<stop offset="0.25" stop-color="#EF8130"/>
<stop offset="0.26" stop-color="#EF7E2D"/>
<stop offset="0.36" stop-color="#F04C3E"/>
<stop offset="0.38" stop-color="#ED4A45"/>
<stop offset="0.49" stop-color="#D43E79"/>
<stop offset="0.55" stop-color="#CA398E"/>
<stop offset="0.7" stop-color="#8D3CC8"/>
<stop offset="0.9" stop-color="#304DF0"/>
</radialGradient>
<clipPath id="clip0_7814_2819">
<rect width="40" height="40" fill="white" transform="translate(0.802979 0.608398)"/>
</clipPath>
</defs>
</svg>
