<svg width="41" height="41" viewBox="0 0 41 41" fill="none" xmlns="http://www.w3.org/2000/svg">
<g clip-path="url(#clip0_7814_2808)">
<path d="M20.803 40.6084C31.8487 40.6084 40.803 31.6541 40.803 20.6084C40.803 9.5627 31.8487 0.608398 20.803 0.608398C9.75728 0.608398 0.802979 9.5627 0.802979 20.6084C0.802979 31.6541 9.75728 40.6084 20.803 40.6084Z" fill="#1D66C2"/>
<path d="M16.3211 16.4434H12.4625V28.888H16.3211V16.4434Z" fill="white"/>
<path d="M26.1518 16.1935C24.6634 16.0689 23.2904 16.9377 22.5425 18.1861V16.4428H18.8104V28.8875H22.6672V22.6661C22.6672 21.0475 23.0393 19.4289 25.0318 19.4289C27.0244 19.4289 27.0225 21.2893 27.0225 22.7889V28.8875H30.8811L30.7565 22.1675C30.7565 18.8075 30.1332 16.1935 26.1518 16.1935Z" fill="white"/>
<path d="M14.3305 14.7017C15.5676 14.7017 16.5705 13.6988 16.5705 12.4617C16.5705 11.2246 15.5676 10.2217 14.3305 10.2217C13.0933 10.2217 12.0905 11.2246 12.0905 12.4617C12.0905 13.6988 13.0933 14.7017 14.3305 14.7017Z" fill="white"/>
</g>
<defs>
<clipPath id="clip0_7814_2808">
<rect width="40" height="40" fill="white" transform="translate(0.802979 0.608398)"/>
</clipPath>
</defs>
</svg>
