<svg width="41" height="41" viewBox="0 0 41 41" fill="none" xmlns="http://www.w3.org/2000/svg">
<g clip-path="url(#clip0_7814_2785)">
<path d="M20.803 40.6084C31.8487 40.6084 40.803 31.6541 40.803 20.6084C40.803 9.5627 31.8487 0.608398 20.803 0.608398C9.75728 0.608398 0.802979 9.5627 0.802979 20.6084C0.802979 31.6541 9.75728 40.6084 20.803 40.6084Z" fill="#FC2C38"/>
<path d="M31.6085 20.6236C31.6085 24.2999 29.8876 26.0189 27.7257 26.0189C27.131 26.0198 26.5458 25.8695 26.0251 25.5822C25.5044 25.2948 25.0653 24.8798 24.749 24.3761C23.8766 25.2618 22.7237 25.817 21.4874 25.9467C20.251 26.0765 19.008 25.7727 17.9708 25.0874C16.9336 24.4021 16.1666 23.3778 15.801 22.1896C15.4355 21.0014 15.494 19.7231 15.9666 18.5733C16.4392 17.4234 17.2965 16.4735 18.3919 15.8858C19.4874 15.2981 20.753 15.1092 21.9723 15.3513C23.1917 15.5934 24.2891 16.2516 25.0769 17.2133C25.8647 18.175 26.2939 19.3804 26.2913 20.6236V22.3761C26.2913 23.2636 26.9164 23.8887 27.7257 23.8887C28.6895 23.8887 29.4709 23.0794 29.4709 20.6292C29.4808 18.7183 28.8536 16.8586 27.6885 15.3439C26.5234 13.8293 24.8868 12.7461 23.0373 12.2655C21.1879 11.7849 19.2309 11.9343 17.4759 12.6902C15.7208 13.446 14.2676 14.7651 13.346 16.4391C12.4244 18.1131 12.0869 20.0464 12.3868 21.9337C12.6867 23.8209 13.607 25.5543 15.0022 26.8601C16.3974 28.1659 18.1879 28.9695 20.0908 29.144C21.9937 29.3185 23.9006 28.8539 25.5099 27.8236L26.9164 29.4403C25.1432 30.6517 23.0435 31.2954 20.896 31.2859C18.7819 31.2811 16.7168 30.6495 14.9617 29.471C13.2067 28.2925 11.8405 26.62 11.036 24.665C10.2315 22.71 10.0248 20.5604 10.4421 18.4879C10.8593 16.4155 11.8818 14.5133 13.3802 13.022C14.8785 11.5307 16.7855 10.5172 18.8599 10.1096C20.9342 9.70213 23.0829 9.91892 25.0341 10.7326C26.9852 11.5463 28.6513 12.9203 29.8215 14.6809C30.9918 16.4415 31.6137 18.5095 31.6085 20.6236ZM20.922 23.8831C21.5667 23.8831 22.1969 23.6919 22.7329 23.3338C23.2689 22.9756 23.6867 22.4665 23.9334 21.8709C24.1801 21.2753 24.2447 20.62 24.1189 19.9877C23.9932 19.3554 23.6827 18.7746 23.2269 18.3187C22.771 17.8629 22.1902 17.5524 21.5579 17.4267C20.9256 17.3009 20.2702 17.3654 19.6746 17.6122C19.079 17.8589 18.57 18.2766 18.2118 18.8127C17.8536 19.3487 17.6625 19.9789 17.6625 20.6236C17.6625 21.4881 18.0059 22.3171 18.6172 22.9284C19.2285 23.5397 20.0575 23.8831 20.922 23.8831Z" fill="white"/>
</g>
<defs>
<clipPath id="clip0_7814_2785">
<rect width="40" height="40" fill="white" transform="translate(0.802979 0.608398)"/>
</clipPath>
</defs>
</svg>
