<svg width="41" height="41" viewBox="0 0 41 41" fill="none" xmlns="http://www.w3.org/2000/svg">
<g clip-path="url(#clip0_7814_2815)">
<path d="M20.803 40.6084C31.8487 40.6084 40.803 31.6541 40.803 20.6084C40.803 9.5627 31.8487 0.608398 20.803 0.608398C9.75728 0.608398 0.802979 9.5627 0.802979 20.6084C0.802979 31.6541 9.75728 40.6084 20.803 40.6084Z" fill="#E60023"/>
<path d="M21.1118 11.5166C15.5546 11.5166 12.6635 15.2226 12.6635 19.2971C12.6635 21.1873 13.6272 23.5222 15.2569 24.2626C15.4802 24.4115 15.629 24.3371 15.629 24.1138L16.0011 22.7073C16.0383 22.5213 16.0383 22.4096 15.9267 22.3352C15.2908 21.4782 14.9524 20.4368 14.963 19.3696C14.963 16.5175 17.1118 13.8124 20.7435 13.8124C23.9304 13.8124 26.1537 15.924 26.1537 18.9994C26.1537 22.4822 24.3751 24.9287 22.0774 24.9287C21.7821 24.9338 21.4894 24.8726 21.2209 24.7494C20.9525 24.6263 20.7151 24.4444 20.5263 24.2173C20.3376 23.9901 20.2022 23.7235 20.1303 23.437C20.0584 23.1505 20.0518 22.8516 20.1109 22.5622C20.483 21.0422 21.2272 19.4496 21.2272 18.3389C21.2272 17.3008 20.7081 16.4785 19.5955 16.4785C18.336 16.4785 17.2253 17.8124 17.2253 19.591C17.2111 20.252 17.3379 20.9085 17.5974 21.5166L16.109 27.8906C15.8876 29.0385 15.9993 30.7073 16.109 31.7064C16.1258 31.8813 16.2132 32.1864 16.4365 32.2292C16.5315 32.2359 16.6265 32.2151 16.71 32.1693C16.7934 32.1234 16.8619 32.0544 16.9072 31.9706C17.4653 31.0794 18.2616 29.6189 18.5555 28.5194L19.4448 25.444C19.8523 26.2608 21.0746 26.9324 22.3342 26.9324C26.2616 26.9324 29.0039 23.3752 29.0039 18.9324C29.0039 14.7036 25.5583 11.5166 21.1118 11.5166Z" fill="white"/>
</g>
<defs>
<clipPath id="clip0_7814_2815">
<rect width="40" height="40" fill="white" transform="translate(0.802979 0.608398)"/>
</clipPath>
</defs>
</svg>
