<svg width="41" height="41" viewBox="0 0 41 41" fill="none" xmlns="http://www.w3.org/2000/svg">
<g clip-path="url(#clip0_7814_2795)">
<path d="M20.803 40.6084C31.8487 40.6084 40.803 31.6541 40.803 20.6084C40.803 9.5627 31.8487 0.608398 20.803 0.608398C9.75728 0.608398 0.802979 9.5627 0.802979 20.6084C0.802979 31.6541 9.75728 40.6084 20.803 40.6084Z" fill="url(#paint0_linear_7814_2795)"/>
<path fill-rule="evenodd" clip-rule="evenodd" d="M9.97691 20.2647C15.7927 17.7307 19.6706 16.06 21.6104 15.2526C27.1509 12.9493 28.3081 12.5493 29.0523 12.5344C29.3282 12.5291 29.5989 12.6104 29.8262 12.767C29.9857 12.9045 30.0874 13.0972 30.1109 13.3065C30.1509 13.5668 30.1622 13.8307 30.1444 14.0935C29.8448 17.2563 28.5444 24.9009 27.8839 28.434C27.6048 29.9223 27.0541 30.4302 26.5202 30.4805C25.363 30.5865 24.4737 29.714 23.3574 28.9791C21.6011 27.8275 20.6095 27.1186 18.9053 25.9875C16.9351 24.6851 18.2132 23.9763 19.3351 22.8116C19.629 22.5065 24.7304 17.8628 24.8309 17.4423C24.8441 17.3802 24.8426 17.3159 24.8264 17.2545C24.8103 17.1931 24.7799 17.1364 24.7379 17.0888C24.6768 17.0507 24.6076 17.0273 24.536 17.0205C24.4643 17.0137 24.392 17.0237 24.3248 17.0498C24.1499 17.0882 21.3456 18.9419 15.9118 22.6107C15.1155 23.1577 14.3943 23.4244 13.7481 23.4107C13.0355 23.394 11.6662 23.007 10.6467 22.6665C9.3983 22.2609 8.41413 22.047 8.49227 21.3642C8.53816 21.007 9.03304 20.6405 9.97691 20.2647Z" fill="white"/>
</g>
<defs>
<linearGradient id="paint0_linear_7814_2795" x1="0.802979" y1="20.6084" x2="40.803" y2="20.6084" gradientUnits="userSpaceOnUse">
<stop stop-color="#2AABEE"/>
<stop offset="1" stop-color="#229ED9"/>
</linearGradient>
<clipPath id="clip0_7814_2795">
<rect width="40" height="40" fill="white" transform="translate(0.802979 0.608398)"/>
</clipPath>
</defs>
</svg>
