<svg width="41" height="41" viewBox="0 0 41 41" fill="none" xmlns="http://www.w3.org/2000/svg">
<g clip-path="url(#clip0_7814_2799)">
<path d="M20.803 40.6084C31.8487 40.6084 40.803 31.6541 40.803 20.6084C40.803 9.5627 31.8487 0.608398 20.803 0.608398C9.75728 0.608398 0.802979 9.5627 0.802979 20.6084C0.802979 31.6541 9.75728 40.6084 20.803 40.6084Z" fill="#7360F2"/>
<path d="M28.4067 13.0422C27.895 12.5678 25.8206 11.0627 21.2011 11.0422C21.2011 11.0422 15.7536 10.7129 13.0987 13.1502C11.6104 14.6274 11.1006 16.7911 11.0522 19.4757C11.0039 22.1604 10.9257 27.1836 15.7722 28.5474V30.6274C15.7722 30.6274 15.7406 31.4683 16.295 31.6413C16.9648 31.8478 17.3592 31.2078 17.9992 30.525C18.3508 30.1529 18.8364 29.5948 19.2011 29.165C22.5164 29.4441 25.0634 28.806 25.3536 28.7111C26.0234 28.4953 29.8094 28.0097 30.4253 22.9827C31.0541 17.7957 30.1108 14.5195 28.4067 13.0422ZM28.9648 22.605C28.4457 26.8004 25.3741 27.0702 24.8085 27.2469C23.0773 27.6691 21.2912 27.8209 19.5136 27.6971C19.5136 27.6971 17.4206 30.2274 16.7657 30.886C16.7289 30.9295 16.6821 30.9634 16.6292 30.9848C16.5764 31.0062 16.5192 31.0144 16.4625 31.0088C16.3508 30.9809 16.3192 30.8488 16.3211 30.6534C16.3211 30.3743 16.3378 27.1967 16.3378 27.1967C12.2448 26.0581 12.4792 21.7809 12.5257 19.5409C12.5722 17.3009 12.9927 15.4646 14.2429 14.2311C16.4885 12.1957 21.1155 12.5009 21.1155 12.5009C25.0225 12.5176 26.896 13.6934 27.3294 14.0878C28.7713 15.3232 29.5062 18.2757 28.9685 22.6032L28.9648 22.605Z" fill="white"/>
<path d="M23.1025 19.6176C23.0356 19.6177 22.9713 19.592 22.9228 19.546C22.8743 19.4999 22.8454 19.4369 22.842 19.3701C22.7974 18.4827 22.3806 18.0474 21.5285 18.0027C21.4595 17.9992 21.3946 17.9685 21.3482 17.9172C21.3018 17.8659 21.2776 17.7983 21.2811 17.7292C21.2845 17.6601 21.3153 17.5953 21.3666 17.5489C21.4179 17.5024 21.4855 17.4783 21.5546 17.4818C22.6709 17.5413 23.3053 18.185 23.3629 19.3422C23.366 19.4112 23.3417 19.4786 23.2954 19.5298C23.2491 19.581 23.1844 19.6119 23.1155 19.6157L23.1025 19.6176Z" fill="white"/>
<path d="M24.4421 20.0677C24.3728 20.0658 24.3071 20.0365 24.2594 19.9863C24.2116 19.9361 24.1857 19.8691 24.1872 19.7998C24.2107 19.3981 24.1539 18.9957 24.02 18.6162C23.8862 18.2367 23.678 17.8877 23.4076 17.5896C22.8644 16.9961 22.1202 16.6742 21.1323 16.6017C21.0981 16.5992 21.0647 16.5901 21.034 16.5747C21.0034 16.5594 20.976 16.5381 20.9536 16.5122C20.9311 16.4863 20.914 16.4562 20.9031 16.4237C20.8923 16.3912 20.888 16.3568 20.8904 16.3226C20.8929 16.2884 20.902 16.255 20.9174 16.2243C20.9327 16.1937 20.954 16.1663 20.9799 16.1439C21.0058 16.1214 21.0359 16.1043 21.0684 16.0934C21.1009 16.0826 21.1353 16.0783 21.1695 16.0807C22.2858 16.1607 23.1639 16.5514 23.7928 17.238C24.1076 17.5853 24.3506 17.9914 24.508 18.433C24.6654 18.8745 24.7341 19.3428 24.71 19.811C24.7092 19.8454 24.7017 19.8794 24.6879 19.9109C24.674 19.9425 24.6541 19.971 24.6292 19.9948C24.6043 20.0187 24.575 20.0374 24.5429 20.0499C24.5108 20.0624 24.4765 20.0685 24.4421 20.0677Z" fill="white"/>
<path d="M25.815 20.6033C25.7463 20.6033 25.6803 20.5761 25.6315 20.5277C25.5827 20.4792 25.5551 20.4134 25.5546 20.3447C25.5416 18.7689 25.069 17.5149 24.1481 16.6238C23.6896 16.1777 23.1472 15.827 22.5522 15.5919C21.9573 15.3569 21.3216 15.2422 20.682 15.2545C20.6165 15.2489 20.5555 15.219 20.511 15.1706C20.4665 15.1222 20.4418 15.0588 20.4418 14.9931C20.4418 14.9273 20.4665 14.8639 20.511 14.8155C20.5555 14.7671 20.6165 14.7372 20.682 14.7317C21.3883 14.7167 22.0906 14.8421 22.7482 15.1004C23.4057 15.3588 24.0055 15.745 24.5127 16.2368C25.5378 17.2358 26.0625 18.6145 26.0755 20.3298C26.076 20.3641 26.0697 20.3981 26.0569 20.4299C26.0441 20.4617 26.0252 20.4907 26.0011 20.5151C25.977 20.5395 25.9484 20.5589 25.9167 20.5721C25.8851 20.5853 25.8512 20.5921 25.8169 20.5921L25.815 20.6033Z" fill="white"/>
<path d="M21.5936 22.8561C21.6965 22.8626 21.7997 22.8469 21.896 22.81C21.9923 22.7731 22.0795 22.7158 22.1517 22.6422L22.5387 22.1585C22.6716 22.0114 22.852 21.9158 23.0484 21.8886C23.2447 21.8614 23.4443 21.9042 23.6122 22.0096C23.9419 22.1964 24.2617 22.4 24.5704 22.6198C24.8606 22.8357 25.4578 23.3324 25.4597 23.3324C25.5983 23.4471 25.6906 23.608 25.7197 23.7856C25.7488 23.9631 25.7126 24.1451 25.6178 24.298C25.4039 24.6678 25.1326 25.0012 24.8141 25.2859C24.5864 25.4935 24.3033 25.6305 23.9992 25.6803C23.9596 25.6849 23.9197 25.6849 23.8801 25.6803C23.7626 25.681 23.6458 25.6628 23.5341 25.6264V25.6133C23.1229 25.498 22.4364 25.2078 21.3015 24.5771C20.6364 24.2245 20.0027 23.8156 19.4076 23.3547C19.1109 23.1236 18.8283 22.8751 18.561 22.6105L18.5313 22.5826L18.5034 22.5529L18.4755 22.525L18.4457 22.4971C18.1821 22.2289 17.9336 21.9463 17.7015 21.6505C17.2311 21.0608 16.8116 20.4322 16.4476 19.7715C15.8169 18.6291 15.5173 17.9445 15.4113 17.5389H15.3983C15.3624 17.4271 15.3448 17.3103 15.3462 17.1929C15.3415 17.1533 15.3415 17.1134 15.3462 17.0738C15.3949 16.7617 15.534 16.4706 15.7462 16.2366C16.0308 15.918 16.3642 15.6467 16.7341 15.4329C16.8866 15.3384 17.0681 15.3022 17.2451 15.3309C17.4222 15.3596 17.583 15.4513 17.6978 15.5891C17.6978 15.5891 18.1964 16.1882 18.4104 16.4785C18.6243 16.7687 18.8494 17.098 19.0355 17.4273C19.1401 17.5954 19.1826 17.7948 19.1554 17.991C19.1282 18.1871 19.0331 18.3675 18.8866 18.5008L18.401 18.8859C18.3277 18.9583 18.2708 19.0456 18.2342 19.1419C18.1977 19.2382 18.1822 19.3412 18.189 19.444C18.189 19.444 18.909 22.1696 21.5936 22.8561Z" fill="white"/>
</g>
<defs>
<clipPath id="clip0_7814_2799">
<rect width="40" height="40" fill="white" transform="translate(0.802979 0.608398)"/>
</clipPath>
</defs>
</svg>
