<svg width="41" height="41" viewBox="0 0 41 41" fill="none" xmlns="http://www.w3.org/2000/svg">
<g clip-path="url(#clip0_7814_2789)">
<path d="M20.803 40.6084C31.8487 40.6084 40.803 31.6541 40.803 20.6084C40.803 9.5627 31.8487 0.608398 20.803 0.608398C9.75728 0.608398 0.802979 9.5627 0.802979 20.6084C0.802979 31.6541 9.75728 40.6084 20.803 40.6084Z" fill="#25D366"/>
<path d="M11.0188 30.5616L12.4235 25.4342C11.3368 23.5472 10.9029 21.3545 11.1891 19.1959C11.4754 17.0373 12.4657 15.0334 14.0066 13.4949C15.5476 11.9564 17.553 10.9692 19.7121 10.6864C21.8711 10.4035 24.0632 10.8408 25.9484 11.9305C27.8336 13.0202 29.3067 14.7013 30.1393 16.7133C30.9719 18.7254 31.1176 20.9559 30.5536 23.059C29.9896 25.1622 28.7476 27.0206 27.02 28.3461C25.2924 29.6716 23.1758 30.3902 20.9983 30.3905C19.3466 30.3895 17.7214 29.975 16.2709 29.1849L11.0188 30.5616ZM16.5072 27.3988L16.8086 27.5849C18.076 28.3354 19.5217 28.7319 20.9946 28.7328C22.8187 28.7331 24.5911 28.1273 26.0333 27.0105C27.4755 25.8938 28.5056 24.3294 28.9618 22.5633C29.418 20.7972 29.2743 18.9296 28.5533 17.2541C27.8324 15.5786 26.5751 14.1902 24.979 13.3072C23.383 12.4241 21.5388 12.0965 19.7363 12.3759C17.9337 12.6552 16.2752 13.5257 15.0213 14.8504C13.7674 16.1752 12.9894 17.879 12.8094 19.6942C12.6295 21.5093 13.0578 23.3328 14.0272 24.8779L14.2132 25.1886L13.3816 28.223L16.5072 27.3988Z" fill="white"/>
<path fill-rule="evenodd" clip-rule="evenodd" d="M25.9826 22.8478C25.9212 22.7436 25.7556 22.6822 25.5082 22.5595C25.2607 22.4367 24.0458 21.8376 23.8189 21.7539C23.5919 21.6701 23.4282 21.6311 23.2607 21.8785C23.0933 22.126 22.6226 22.6822 22.4793 22.8478C22.3361 23.0134 22.1891 23.0339 21.9435 22.9092C21.2183 22.618 20.5492 22.2032 19.9658 21.6832C19.4253 21.1832 18.962 20.6057 18.591 19.9697C18.4458 19.7222 18.5742 19.5976 18.6989 19.4655C18.8235 19.3334 18.9463 19.1753 19.071 19.032C19.1733 18.9072 19.2566 18.7681 19.3184 18.619C19.351 18.5506 19.3661 18.4753 19.3626 18.3997C19.359 18.324 19.3368 18.2505 19.2979 18.1855C19.2365 18.0627 18.7398 16.846 18.5351 16.3511C18.3305 15.8562 18.1314 15.9343 17.977 15.925C17.8226 15.9157 17.6682 15.925 17.5044 15.925C17.3773 15.9271 17.252 15.9559 17.1366 16.0094C17.0213 16.0629 16.9184 16.14 16.8347 16.2357C16.5572 16.4988 16.3371 16.8164 16.1883 17.1686C16.0394 17.5208 15.9649 17.8999 15.9696 18.2822C15.9696 19.499 16.8551 20.6748 16.9798 20.8404C17.1044 21.006 18.7231 23.5027 21.2031 24.5725C21.6635 24.7711 22.1342 24.945 22.6133 25.0934C23.1177 25.2466 23.6508 25.2803 24.1705 25.192C24.6449 25.1213 25.6328 24.5929 25.8449 24.0162C26.057 23.4395 26.044 22.9501 25.9826 22.8478Z" fill="white"/>
</g>
<defs>
<clipPath id="clip0_7814_2789">
<rect width="40" height="40" fill="white" transform="translate(0.802979 0.608398)"/>
</clipPath>
</defs>
</svg>
