<svg width="41" height="41" viewBox="0 0 41 41" fill="none" xmlns="http://www.w3.org/2000/svg">
<g clip-path="url(#clip0_7814_2851)">
<path d="M20.803 40.6084C31.8487 40.6084 40.803 31.6541 40.803 20.6084C40.803 9.5627 31.8487 0.608398 20.803 0.608398C9.75728 0.608398 0.802979 9.5627 0.802979 20.6084C0.802979 31.6541 9.75728 40.6084 20.803 40.6084Z" fill="#FF0000"/>
<path d="M30.669 15.5258C30.5511 15.0865 30.3197 14.6859 29.998 14.3642C29.6764 14.0426 29.2758 13.8112 28.8365 13.6933C27.2216 13.2598 20.7378 13.2598 20.7378 13.2598C20.7378 13.2598 14.2541 13.2598 12.6374 13.6933C12.1985 13.8122 11.7985 14.0439 11.477 14.3654C11.1555 14.6869 10.9238 15.087 10.8048 15.5258C10.3713 17.1426 10.3713 20.5156 10.3713 20.5156C10.3713 20.5156 10.3713 23.8886 10.8048 25.5053C10.9238 25.9442 11.1555 26.3442 11.477 26.6657C11.7985 26.9872 12.1985 27.219 12.6374 27.3379C14.2541 27.7714 20.7378 27.7714 20.7378 27.7714C20.7378 27.7714 27.2197 27.7714 28.8365 27.3379C29.2758 27.22 29.6764 26.9886 29.998 26.6669C30.3197 26.3453 30.5511 25.9447 30.669 25.5053C31.1025 23.8886 31.1025 20.5156 31.1025 20.5156C31.1025 20.5156 31.1025 17.1426 30.669 15.5258ZM18.6634 23.6244V17.4067L24.0588 20.5156L18.6634 23.6244Z" fill="white"/>
</g>
<defs>
<clipPath id="clip0_7814_2851">
<rect width="40" height="40" fill="white" transform="translate(0.802979 0.608398)"/>
</clipPath>
</defs>
</svg>
